# xmcd
#
# Track frame offsets:
# 150
# 15630
# 30329
# 46737
# 65949
# 81179
# 105749
# 124826
# 150369
# 173471
# 187330
#
# Disc length: 2727 seconds
#
#
# Revision: 0
# Processed by: cddbd v1.5.1PL2 Copyright (c) Steve Scherf et al.
# Submitted via: FreeRIP 2.944 
#
DISCID=850aa50b
DTITLE=Stephen A. Romprey - Train Station Blues
DYEAR=2005
DGENRE=Folk
TTITLE0=Bill Collector
TTITLE1=House in the Woods
TTITLE2=Apple Sauce
TTITLE3=Virginia
TTITLE4=Dog
TTITLE5=Colors
TTITLE6=Old Man
TTITLE7=Angel
TTITLE8=Charish
TTITLE9=Stompers
TTITLE10=Train Station Blues
EXTD=ALL RIGHTS RESERVED.  ROMP STUDIOS
EXTT0=
EXTT1=
EXTT2=
EXTT3=
EXTT4=
EXTT5=
EXTT6=
EXTT7=
EXTT8=
EXTT9=
EXTT10=
PLAYORDER=
